<?xml version="1.0" encoding="UTF-8" standalone="no"?>
<!-- Created with Inkscape (http://www.inkscape.org/) -->

<svg
   width="427.75781"
   height="128"
   viewBox="0 0 427.75782 128"
   version="1.1"
   id="svg19286"
   xml:space="preserve"
   xmlns="http://www.w3.org/2000/svg"
   xmlns:svg="http://www.w3.org/2000/svg"
   xmlns:rdf="http://www.w3.org/1999/02/22-rdf-syntax-ns#"
   xmlns:cc="http://creativecommons.org/ns#"
   xmlns:dc="http://purl.org/dc/elements/1.1/"><title
     id="title452">Eightfold Wordmark</title><defs
     id="defs19283" /><g
     id="layer1"><g
       id="g10904"
       style="stroke:#000000;stroke-width:0.38125;stroke-linecap:round;stroke-linejoin:round;stroke-miterlimit:1;stroke-dasharray:none;stroke-dashoffset:0;stroke-opacity:1;paint-order:normal"
       transform="matrix(5.2499396,0,0,5.2499396,-112.43832,-40.998764)"><path
         style="fill:#8768de;fill-opacity:1;stroke:#000000;stroke-width:0.38125;stroke-linecap:round;stroke-linejoin:round;stroke-miterlimit:1;stroke-dasharray:none;stroke-dashoffset:0;stroke-opacity:1;paint-order:normal"
         d="m 21.607696,26 5.196152,3 v -6 l -5.196153,-3 z"
         id="path9329" /><path
         style="fill:#68de78;fill-opacity:1;stroke:#000000;stroke-width:0.38125;stroke-linecap:round;stroke-linejoin:round;stroke-miterlimit:1;stroke-dasharray:none;stroke-dashoffset:0;stroke-opacity:1;paint-order:normal"
         d="M 26.803848,11 32,8.0000002 37.196153,11 32,14 Z"
         id="path9335" /><path
         style="fill:#de6767;fill-opacity:1;stroke:#000000;stroke-width:0.38125;stroke-linecap:round;stroke-linejoin:round;stroke-miterlimit:1;stroke-dasharray:none;stroke-dashoffset:0;stroke-opacity:1;paint-order:normal"
         d="m 42.392305,26 -10e-7,-6 -5.196152,3 v 6 z"
         id="path9341" /><g
         id="g9416"
         style="fill:#66c5de;fill-opacity:1;stroke:#000000;stroke-width:0.38125;stroke-linecap:round;stroke-linejoin:round;stroke-miterlimit:1;stroke-dasharray:none;stroke-dashoffset:0;stroke-opacity:1;paint-order:normal"><path
           style="fill:#66c5de;fill-opacity:1;stroke:#000000;stroke-width:0.38125;stroke-linecap:round;stroke-linejoin:round;stroke-miterlimit:1;stroke-dasharray:none;stroke-dashoffset:0;stroke-opacity:1;paint-order:normal"
           d="M 21.607695,14 26.803848,11 32,14 26.803848,17 Z"
           id="path9333" /><path
           style="fill:#66c5de;fill-opacity:1;stroke:#000000;stroke-width:0.38125;stroke-linecap:round;stroke-linejoin:round;stroke-miterlimit:1;stroke-dasharray:none;stroke-dashoffset:0;stroke-opacity:1;paint-order:normal"
           d="m 21.607695,20 v -6 l 5.196153,3 v 6 z"
           id="path9331" /><path
           style="fill:#66c5de;fill-opacity:1;stroke:#000000;stroke-width:0.38125;stroke-linecap:round;stroke-linejoin:round;stroke-miterlimit:1;stroke-dasharray:none;stroke-dashoffset:0;stroke-opacity:1;paint-order:normal"
           d="M 26.803847,23 32,20 v -6 l -5.196153,3 z"
           id="path9345" /></g><g
         id="g9421"
         style="fill:#d6de68;fill-opacity:1;stroke:#000000;stroke-width:0.38125;stroke-linecap:round;stroke-linejoin:round;stroke-miterlimit:1;stroke-dasharray:none;stroke-dashoffset:0;stroke-opacity:1;paint-order:normal"><path
           style="fill:#d6de68;fill-opacity:1;stroke:#000000;stroke-width:0.38125;stroke-linecap:round;stroke-linejoin:round;stroke-miterlimit:1;stroke-dasharray:none;stroke-dashoffset:0;stroke-opacity:1;paint-order:normal"
           d="M 42.392305,14 37.196152,11 32,14 l 5.196152,3 z"
           id="path9337" /><path
           style="fill:#d6de68;fill-opacity:1;stroke:#000000;stroke-width:0.38125;stroke-linecap:round;stroke-linejoin:round;stroke-miterlimit:1;stroke-dasharray:none;stroke-dashoffset:0;stroke-opacity:1;paint-order:normal"
           d="M 37.196152,23 32,20 v -6 0 l 5.196153,3 z"
           id="path9347" /><path
           style="fill:#d6de68;fill-opacity:1;stroke:#000000;stroke-width:0.38125;stroke-linecap:round;stroke-linejoin:round;stroke-miterlimit:1;stroke-dasharray:none;stroke-dashoffset:0;stroke-opacity:1;paint-order:normal"
           d="m 42.392305,20 v -6 l -5.196153,3 1e-6,6 z"
           id="path9343" /></g><g
         id="g9426"
         style="fill:#de69b7;fill-opacity:1;stroke:#000000;stroke-width:0.38125;stroke-linecap:round;stroke-linejoin:round;stroke-miterlimit:1;stroke-dasharray:none;stroke-dashoffset:0;stroke-opacity:1;paint-order:normal"><path
           style="fill:#de69b7;fill-opacity:1;stroke:#000000;stroke-width:0.38125;stroke-linecap:round;stroke-linejoin:round;stroke-miterlimit:1;stroke-dasharray:none;stroke-dashoffset:0;stroke-opacity:1;paint-order:normal"
           d="M 32.000001,26 26.803848,23 32,20 l 5.196152,3 z"
           id="path9349" /><path
           style="fill:#de69b7;fill-opacity:1;stroke:#000000;stroke-width:0.38125;stroke-linecap:round;stroke-linejoin:round;stroke-miterlimit:1;stroke-dasharray:none;stroke-dashoffset:0;stroke-opacity:1;paint-order:normal"
           d="M 32,32 26.803848,29 V 23 L 32,26 Z"
           id="path9327" /><path
           style="fill:#de69b7;fill-opacity:1;stroke:#000000;stroke-width:0.38125;stroke-linecap:round;stroke-linejoin:round;stroke-miterlimit:1;stroke-dasharray:none;stroke-dashoffset:0;stroke-opacity:1;paint-order:normal"
           d="m 32,32 v -6 l 5.196153,-3 -1e-6,6 z"
           id="path9339" /></g><g
         id="g9431"
         transform="translate(4.3642225e-7,1.4175778e-5)"
         style="fill:#ffffff;fill-opacity:1;stroke:#000000;stroke-width:0.38125;stroke-linecap:round;stroke-linejoin:round;stroke-miterlimit:1;stroke-dasharray:none;stroke-dashoffset:0;stroke-opacity:1;paint-order:normal"><path
           style="fill:#ffffff;fill-opacity:1;stroke:#000000;stroke-width:0.38125;stroke-linecap:round;stroke-linejoin:round;stroke-miterlimit:1;stroke-dasharray:none;stroke-dashoffset:0;stroke-opacity:1;paint-order:normal"
           d="M 34.598076,18.5 32,17 29.401924,18.5 32,20 Z"
           id="path9355" /><path
           style="fill:#ffffff;fill-opacity:1;stroke:#000000;stroke-width:0.38125;stroke-linecap:round;stroke-linejoin:round;stroke-miterlimit:1;stroke-dasharray:none;stroke-dashoffset:0;stroke-opacity:1;paint-order:normal"
           d="m 29.401924,18.5 v 3 L 32.000001,23 32,20 Z"
           id="path9357" /><path
           style="fill:#ffffff;fill-opacity:1;stroke:#000000;stroke-width:0.38125;stroke-linecap:round;stroke-linejoin:round;stroke-miterlimit:1;stroke-dasharray:none;stroke-dashoffset:0;stroke-opacity:1;paint-order:normal"
           d="m 32,23 v -3 l 2.598076,-1.5 v 3 z"
           id="path9353" /></g></g><g
       aria-label="Eightfold"
       id="text1847"
       style="font-size:80.9663px;font-family:CirrusCumulus;-inkscape-font-specification:CirrusCumulus;stroke-width:1.01208;stroke-linecap:round;stroke-linejoin:round"><path
         d="m 138.70805,32.831747 h 7.77277 l 5.26281,3.562518 2.02416,3.562517 1.45739,-0.971596 -2.18609,-4.129281 -0.32387,-0.242899 -5.26281,-3.643484 -0.80966,-0.242898 h -8.01566 l -0.7287,0.242898 -5.99151,5.100877 -0.32386,0.485798 -2.10513,5.26281 -0.16193,0.566764 v 6.315371 l 0.081,0.323866 2.18609,4.938944 -0.2429,0.08097 -4.85798,4.938945 -0.16193,0.323865 -3.40059,7.934697 -0.16193,0.566764 v 7.853732 0.566764 l 3.23865,8.582428 0.2429,0.404831 4.45315,6.315372 0.56676,0.404831 6.55827,3.238652 0.7287,0.323865 h 11.49722 l 0.72869,-0.161932 6.88214,-4.129282 0.32386,-0.323865 4.53412,-7.044068 0.32386,-0.485798 V 75.09616 h -2.10512 v 7.610833 l -4.37218,6.882135 -6.39634,3.886383 -11.01142,-0.08097 -6.15344,-3.238652 -5.01991,-6.153438 -2.99575,-8.339529 v -7.691799 l 3.31962,-7.772765 4.21025,-4.615079 v 0 l 3.15768,3.481551 4.04832,2.105124 0.72869,0.161932 7.85373,0.08097 0.80967,-0.242899 3.96735,-2.428989 3.56251,-4.048315 -1.45739,-1.295461 -3.72445,4.129281 -3.23865,1.862225 h -7.52987 l -3.40058,-1.53836 -2.99576,-3.157685 2.83382,-1.457394 h 0.081 6.88214 v -1.781258 h -6.88214 l -0.7287,0.161932 -2.91478,1.457394 -1.86223,-4.372181 v -0.08097 -5.991506 l 2.10513,-5.343776 z"
         id="path673" /><path
         d="m 180.40565,54.368783 h -9.79692 v 2.105124 h 7.85373 v 17.164856 21.860901 h 1.94319 V 73.719729 55.502312 Z m 0,-7.610832 v -7.772765 h -2.02415 v 7.772765 z"
         id="path675" /><path
         d="m 205.34326,54.368783 -0.56676,0.161933 -4.04832,2.509955 -3.40058,4.61508 -2.26706,5.505708 -0.081,0.323865 v 5.505709 l 1.9432,5.586674 0.72869,1.53836 -1.37643,1.052562 -1.05256,2.752854 v 3.319619 l 1.86223,3.076719 3.56251,2.18609 h 3.56252 l -1.70029,0.809663 -1.86223,1.052562 -4.29121,3.805416 -0.081,0.404832 v 4.938946 l 0.081,0.40483 2.91479,4.45315 8.74436,3.31961 h 9.39209 l 8.82533,-3.40058 2.67188,-4.12928 0.081,-0.4858 v -5.181843 l -0.16193,-0.485797 -3.88638,-4.291214 -6.72021,-2.671888 -0.72869,-0.161933 h -9.31113 -0.56676 -6.55827 l -2.50996,-1.619326 -1.45739,-2.267056 v -2.833821 l 0.72869,-2.024157 0.89063,-0.647731 2.02416,2.590922 0.2429,0.242899 3.80542,2.267056 0.56676,0.161933 h 7.4489 l 0.56676,-0.161933 3.48156,-2.267056 3.72445,-4.615079 2.10512,-6.315372 0.081,-0.404831 v -5.586675 l -1.86223,-5.343776 -0.9716,-1.619326 5.42475,-5.424742 -1.37643,-1.457394 -5.34378,5.424743 -1.45739,-1.862225 -3.80542,-2.509956 -0.56676,-0.242899 z m 0.32387,1.862225 h 6.80116 l 2.99576,2.024158 3.48155,4.210248 1.78126,5.01991 V 72.8291 l -1.86223,5.829574 -3.23865,4.210247 -3.07672,2.024158 h -6.88213 l -3.56252,-2.105124 -1.78126,-2.18609 1.13353,-0.485798 h 4.04831 v -1.781258 h -4.45314 l -1.78126,0.809663 v -0.08097 l -0.64773,-1.53836 -1.61933,-4.696045 v -5.343776 l 2.02416,-4.938944 3.23865,-4.210248 z m 2.26705,36.434836 h 9.23016 l 6.7202,2.83382 3.07672,3.400585 v 4.615081 l -2.50995,3.56252 -7.28697,2.75285 h -8.90629 l -7.61084,-2.99575 -2.18609,-3.40059 v -4.453145 l 3.64349,-3.400584 z"
         id="path677" /><path
         d="m 242.18292,64.570537 3.88639,-5.505708 4.04831,-2.752854 h 8.01567 l 3.80541,2.83382 3.64349,5.019911 v 31.333958 h 2.02415 V 63.841841 l -0.2429,-0.728697 -3.96734,-5.26281 -4.29122,-3.238652 -0.72869,-0.242899 h -8.50147 l -0.72869,0.242899 -4.61508,3.238652 -2.42899,3.400585 V 35.746534 h -2.10513 v 28.500138 l -6.15343,9.392091 1.70029,1.214495 4.53411,-7.125035 v 27.771441 h 2.10512 z"
         id="path679" /><path
         d="m 286.63345,56.392941 h 13.9262 V 54.368783 H 286.55248 V 35.746534 h -2.02415 v 18.622249 h -6.80117 v 2.024158 h 6.88213 v 39.106723 h 2.02416 z"
         id="path681" /><path
         d="M 330.76011,56.150042 V 54.206851 H 316.67198 V 42.62867 l 5.01991,-4.938945 h 6.07247 l 2.67189,1.943192 1.53836,2.509955 v 3.319618 h 1.86222 v -3.400584 l -1.86222,-3.481551 -0.2429,-0.323865 -3.07672,-2.348023 -0.7287,-0.161933 h -6.80117 l -0.56676,0.323865 -3.88638,3.886383 v -4.210248 h -1.94319 v 6.153439 l -5.99151,5.991506 1.29546,1.214495 4.69605,-4.534113 v 9.63499 h -7.85374 v 1.943191 h 7.85374 v 39.349622 h 2.02415 V 56.150042 Z"
         id="path683" /><path
         d="m 362.256,90.722653 -3.88638,2.83382 h -8.01567 l -4.12928,-2.83382 -3.56251,-5.181844 -2.42899,-7.448899 v -6.558271 l 2.42899,-7.367933 3.72445,-5.019911 4.04831,-2.83382 h 8.01567 l 3.80541,2.914786 3.80542,5.181844 0.081,0.08097 2.02416,6.720203 v 7.125035 l -2.10512,6.801169 v 0.08097 z m -21.3751,-4.453147 3.88638,5.667641 0.32387,0.323865 4.45314,2.995753 0.64773,0.242899 h 8.50146 l 0.7287,-0.242899 4.12928,-2.995753 0.2429,-0.323865 3.88638,-5.667641 0.16194,-0.323865 2.26705,-7.286967 0.081,-0.323865 V 71.29074 l -0.081,-0.323865 -2.26705,-7.286967 -0.16194,-0.404831 -3.88638,-5.343776 -0.2429,-0.242899 -4.12928,-3.07672 -0.7287,-0.242899 h -8.50146 l -0.72869,0.242899 -4.45315,3.07672 -0.2429,0.242899 -3.88638,5.343776 -0.16193,0.323865 -2.59093,7.853731 v 6.801169 l 2.59093,7.772765 z"
         id="path685" /><path
         d="m 382.65955,35.746534 h -2.10512 v 59.75313 h 2.10512 z"
         id="path687" /><path
         d="m 403.62986,90.722653 -2.99575,-4.048315 3.48155,-6.882136 -1.70029,-0.971596 -2.83382,5.667641 -1.9432,-6.315371 v -7.286967 l 2.26706,-6.963102 3.96735,-5.100877 3.96735,-2.590922 h 8.09663 l 3.88638,2.914787 3.88638,4.857978 2.02416,6.80117 v 7.367933 l -2.10512,7.4489 -3.96735,5.262809 -3.80542,2.752854 h -7.85373 l -4.21025,-2.752854 z m 24.12796,4.777011 v -59.75313 h -2.02416 v 28.419172 l -0.32386,-1.052562 -0.16194,-0.404832 -4.21024,-5.100877 -4.12929,-2.914786 -0.72869,-0.323866 h -8.58243 l -0.7287,0.323866 -4.45314,2.914786 -0.2429,0.242899 -3.88639,4.857978 -0.16193,0.323866 -2.50995,7.934697 v 7.044068 l 0.081,0.323866 2.42899,8.015663 0.2429,0.485798 -3.96735,7.934698 1.78126,0.809663 3.48155,-6.963102 2.50996,3.400584 0.32386,0.323866 4.45315,2.914786 0.64773,0.242899 h 8.58243 l 0.72869,-0.242899 4.37218,-3.157685 3.96735,-5.424742 0.16194,-0.404832 0.32386,-1.133528 v 10.363686 z"
         id="path689" /></g></g><metadata
     id="metadata450"><rdf:RDF><cc:Work
         rdf:about=""><dc:title>Eightfold Wordmark</dc:title><dc:date>2023-01-03</dc:date><dc:creator><cc:Agent><dc:title>Ash Walker</dc:title></cc:Agent></dc:creator><cc:license
           rdf:resource="http://creativecommons.org/licenses/by-nc-sa/4.0/" /><dc:description>A cube divided into color-coded octants, followed by the word 'Eightfold'.</dc:description><dc:rights><cc:Agent><dc:title>Font (CirrusCumulus) © Clara Sambot, licensed under SIL Open Font License, Version 1.1</dc:title></cc:Agent></dc:rights></cc:Work><cc:License
         rdf:about="http://creativecommons.org/licenses/by-nc-sa/4.0/"><cc:permits
           rdf:resource="http://creativecommons.org/ns#Reproduction" /><cc:permits
           rdf:resource="http://creativecommons.org/ns#Distribution" /><cc:requires
           rdf:resource="http://creativecommons.org/ns#Notice" /><cc:requires
           rdf:resource="http://creativecommons.org/ns#Attribution" /><cc:prohibits
           rdf:resource="http://creativecommons.org/ns#CommercialUse" /><cc:permits
           rdf:resource="http://creativecommons.org/ns#DerivativeWorks" /><cc:requires
           rdf:resource="http://creativecommons.org/ns#ShareAlike" /></cc:License></rdf:RDF></metadata></svg>
